<svg width="28" height="29" viewBox="0 0 28 29" fill="none"
    xmlns="http://www.w3.org/2000/svg">
    <path d="M21.796 15.7143H12.2846V5.75006C12.2846 5.55449 12.2463 5.361 12.1721 5.18157C12.0978 5.00214 11.9892 4.84059 11.8529 4.70693C11.7167 4.57327 11.5556 4.47035 11.3799 4.40454C11.2041 4.33873 11.0172 4.31144 10.831 4.32434C8.60803 4.47736 6.47427 5.29823 4.68509 6.68871C2.89592 8.07919 1.52714 9.98036 0.742584 12.1647C-0.0419691 14.349 -0.209051 16.7238 0.261337 19.005C0.731726 21.2862 1.81965 23.3771 3.3949 25.0274C4.97015 26.6776 6.96597 27.8174 9.14348 28.3102C11.321 28.8029 13.5879 28.6279 15.6729 27.806C17.758 26.9841 19.5727 25.5501 20.9 23.6757C22.2273 21.8014 23.0108 19.566 23.1569 17.2372C23.1694 17.0418 23.1434 16.8457 23.0805 16.6613C23.0176 16.4768 22.9191 16.3079 22.7912 16.1651C22.6633 16.0222 22.5087 15.9085 22.337 15.8309C22.1653 15.7534 21.9802 15.7137 21.7932 15.7143H21.796Z" fill="white"/>
    <path d="M15.6937 0C15.4796 0 15.2696 0.0142857 14.9233 0.0385714C14.5788 0.0620714 14.2557 0.221536 14.0191 0.484802C13.7825 0.748067 13.6499 1.09554 13.6483 1.45714V14.2857H25.8869C26.2337 14.2865 26.5678 14.1488 26.8211 13.9006C27.0744 13.6525 27.228 13.3126 27.2505 12.95C27.2683 12.6814 27.2887 12.4157 27.2887 12.1429C27.2851 8.92279 26.0622 5.83576 23.8884 3.55922C21.7146 1.28269 18.7674 0.00264648 15.6937 0Z" fill="white"/>
</svg>
