<svg width="70" height="70" viewBox="0 0 101 101" fill="none"
    xmlns="http://www.w3.org/2000/svg">
    <path d="M94.7016 50.0555C97.9017 50.0235 100.557 52.5999 100.219 55.7824C99.7312 60.368 98.6108 64.8737 96.8819 69.1688C94.43 75.26 90.8025 80.8086 86.2063 85.4978C81.6101 90.187 76.1353 93.925 70.0945 96.4984C64.0537 99.0718 57.5652 100.43 50.9994 100.496C44.4337 100.562 37.9193 99.3337 31.8281 96.8818C25.7369 94.43 20.1884 90.8024 15.4991 86.2063C10.8099 81.6101 7.07192 76.1353 4.49853 70.0945C2.68391 65.8348 1.47344 61.3526 0.894318 56.7776C0.492412 53.6026 3.09524 50.9734 6.29541 50.9414C9.49558 50.9093 12.0713 53.4924 12.5839 56.6514C13.0794 59.7046 13.943 62.6937 15.1608 65.5524C17.1377 70.193 20.0093 74.3988 23.6116 77.9296C27.2139 81.4604 31.4764 84.2472 36.1557 86.1307C40.835 88.0142 45.8394 88.9577 50.8833 88.9071C55.9272 88.8566 60.9118 87.8131 65.5524 85.8362C70.193 83.8592 74.3988 80.9877 77.9296 77.3854C81.4605 73.783 84.2472 69.5206 86.1307 64.8413C87.291 61.9588 88.0945 58.9529 88.5287 55.8905C88.978 52.7218 91.5014 50.0876 94.7016 50.0555Z" fill="#1DD5D2"/>
    <path d="M77.8947 31.3861C76.3024 28.8133 73.8387 26.7404 70.8775 25.4819C64.2002 22.5513 56.7934 24.0738 54.3341 28.8777C51.8737 33.687 56.2256 40.2623 62.8993 43.1951C69.5731 46.1278 73.9285 52.701 71.4687 57.5076C69.0119 62.3147 61.6057 63.8346 54.9283 60.9039C52.0353 59.6884 49.5969 57.6516 47.9591 55.0823M66.1639 24.1222L67.1321 19.0131" stroke="#1DD5D2" stroke-width="10" stroke-linecap="round" stroke-linejoin="round" />
    <circle cx="31" cy="36" r="7" fill="#1DD5D2" />
</svg>