<svg width="27" height="27" viewBox="0 0 27 27" fill="none" xmlns="http://www.w3.org/2000/svg">
<path fill-rule="evenodd" clip-rule="evenodd" d="M13.5509 2.53125C15.617 2.53124 17.2366 2.53123 18.5215 2.67044C19.8327 2.81251 20.8951 3.10761 21.8022 3.76667C22.3514 4.16566 22.8343 4.6486 23.2333 5.19776C23.8924 6.10488 24.1875 7.16731 24.3296 8.47854C24.4688 9.76342 24.4688 11.383 24.4688 13.4491V13.551C24.4688 15.6171 24.4688 17.2366 24.3296 18.5215C24.1875 19.8327 23.8924 20.8951 23.2333 21.8022C22.8343 22.3514 22.3514 22.8343 21.8022 23.2333C20.8951 23.8924 19.8327 24.1875 18.5215 24.3296C17.2366 24.4688 15.617 24.4688 13.5509 24.4688H13.449C11.3829 24.4688 9.76342 24.4688 8.47854 24.3296C7.16731 24.1875 6.10488 23.8924 5.19776 23.2333C4.6486 22.8343 4.16566 22.3514 3.76667 21.8022C3.10761 20.8951 2.81251 19.8327 2.67044 18.5215C2.53123 17.2366 2.53124 15.617 2.53125 13.5509V13.4491C2.53124 11.383 2.53123 9.76344 2.67044 8.47854C2.81251 7.16731 3.10761 6.10488 3.76667 5.19776C4.16566 4.6486 4.6486 4.16566 5.19776 3.76667C6.10488 3.10761 7.16731 2.81251 8.47854 2.67044C9.76344 2.53123 11.383 2.53124 13.4491 2.53125H13.5509ZM14.3438 7.875C14.3438 7.40901 13.966 7.03125 13.5 7.03125C13.034 7.03125 12.6562 7.40901 12.6562 7.875V19.125C12.6562 19.591 13.034 19.9688 13.5 19.9688C13.966 19.9688 14.3438 19.591 14.3438 19.125V7.875ZM18.8438 12.375C18.8438 11.909 18.466 11.5312 18 11.5312C17.534 11.5312 17.1562 11.909 17.1562 12.375V19.125C17.1562 19.591 17.534 19.9688 18 19.9688C18.466 19.9688 18.8438 19.591 18.8438 19.125V12.375ZM9.84375 14.625C9.84375 14.159 9.46599 13.7812 9 13.7812C8.53401 13.7812 8.15625 14.159 8.15625 14.625V19.125C8.15625 19.591 8.53401 19.9688 9 19.9688C9.46599 19.9688 9.84375 19.591 9.84375 19.125V14.625Z" fill="white"/>
</svg>
