<svg width="24" height="24" viewBox="0 0 26 26" fill="none" xmlns="http://www.w3.org/2000/svg">
<path d="M6.81814 5.37938C9.70719 3.28036 11.1517 2.23085 12.8014 2.17033C12.9338 2.16547 13.0662 2.16547 13.1986 2.17033C14.8483 2.23085 16.2928 3.28036 19.1819 5.37938C22.0709 7.47839 23.5154 8.5279 24.0828 10.0782C24.1283 10.2025 24.1692 10.3285 24.2055 10.4559C24.6578 12.0436 24.106 13.7417 23.0025 17.138L21.138 22.8762C20.8418 23.7879 19.9921 24.4052 19.0335 24.4052C17.8113 24.4052 16.8206 23.4145 16.8206 22.1923V19.2143C16.8206 18.0676 15.891 17.138 14.7443 17.138H11.2558C10.109 17.138 9.1794 18.0676 9.1794 19.2143V22.1923C9.1794 23.4145 8.18867 24.4052 6.96654 24.4052C6.00787 24.4052 5.15822 23.7879 4.86198 22.8762L2.99753 17.138C1.89402 13.7417 1.34226 12.0436 1.79449 10.4559C1.83077 10.3285 1.8717 10.2025 1.91722 10.0782C2.48456 8.5279 3.92909 7.47839 6.81814 5.37938Z" fill="white"/>
</svg>
