<svg xmlns="http://www.w3.org/2000/svg" viewBox="221.2435 13.3616 13.7324 16.7773" width="20px" height="20px">
  <path d="M 231.841 14.687 L 231.931 14.739 C 232.709 15.188 233.358 15.563 233.833 15.929 C 234.335 16.316 234.733 16.761 234.899 17.383 C 235.066 18.005 234.943 18.589 234.703 19.175 C 234.535 19.581 234.29 20.038 233.994 20.559 L 233.358 20.182 L 233.35 20.177 L 226.425 16.179 L 225.777 15.797 C 226.077 15.286 226.348 14.849 226.614 14.504 C 227.001 14.003 227.445 13.605 228.067 13.438 C 228.689 13.272 229.273 13.394 229.859 13.635 C 230.414 13.863 231.063 14.238 231.841 14.687 Z" fill="black" fill-opacity="0.72"/>
  <path d="M 225.382 16.371 L 221.904 22.395 C 221.606 22.91 221.37 23.317 221.283 23.78 C 221.196 24.243 221.267 24.708 221.357 25.296 L 221.381 25.455 C 221.548 26.546 221.685 27.446 221.891 28.128 C 222.107 28.841 222.439 29.459 223.093 29.836 C 223.746 30.213 224.447 30.192 225.173 30.022 C 225.867 29.86 226.714 29.529 227.743 29.127 L 227.892 29.069 C 228.446 28.853 228.885 28.682 229.242 28.375 C 229.599 28.068 229.834 27.661 230.131 27.145 L 233.601 21.135 L 232.952 20.75 L 226.022 16.749 L 225.382 16.371 Z" fill="black" fill-opacity="0.72"/>
</svg>