<svg width="22" height="21" viewBox="0 0 22 21" fill="none" xmlns="http://www.w3.org/2000/svg">
<path fill-rule="evenodd" clip-rule="evenodd" d="M17.125 11.3438C17.591 11.3438 17.9688 10.966 17.9688 10.5C17.9688 10.034 17.591 9.65625 17.125 9.65625L8.125 9.65625V7.125C8.125 6.07987 8.125 5.5573 8.19425 5.12006C8.57547 2.71316 10.4632 0.825467 12.8701 0.444252C13.3073 0.375 13.8299 0.375 14.875 0.375C15.9201 0.375 16.4427 0.375 16.8799 0.444252C19.2868 0.825467 21.1745 2.71316 21.5557 5.12006C21.625 5.5573 21.625 6.07987 21.625 7.125V13.875C21.625 14.9201 21.625 15.4427 21.5557 15.8799C21.1745 18.2868 19.2868 20.1745 16.8799 20.5557C16.4427 20.625 15.9201 20.625 14.875 20.625C13.8299 20.625 13.3073 20.625 12.8701 20.5557C10.4632 20.1745 8.57547 18.2868 8.19425 15.8799C8.125 15.4427 8.125 14.9201 8.125 13.875V11.3438L17.125 11.3438ZM8.125 11.3438L2.71321 11.3438C3.08159 11.7067 3.62385 12.1383 4.41588 12.7663L6.39922 14.3389C6.76436 14.6284 6.82566 15.1591 6.53614 15.5242C6.24663 15.8894 5.71592 15.9507 5.35078 15.6611L3.32714 14.0566C2.5706 13.4568 1.94632 12.9618 1.50158 12.5188C1.0452 12.0642 0.666873 11.5596 0.564136 10.9148C0.542249 10.7774 0.53125 10.6388 0.53125 10.5C0.53125 10.3612 0.542248 10.2226 0.564135 10.0852C0.666871 9.44043 1.0452 8.93583 1.50158 8.4812C1.94632 8.03818 2.57059 7.54322 3.32713 6.94339L5.35078 5.33886C5.71592 5.04934 6.24663 5.11064 6.53614 5.47578C6.82566 5.84092 6.76436 6.37163 6.39922 6.66114L4.41588 8.23372C3.62385 8.86172 3.08159 9.29326 2.71321 9.65625L8.125 9.65625V11.3438Z" fill="white"/>
</svg>
